<svg xmlns="http://www.w3.org/2000/svg" viewBox="0 0 200 200" width="200" height="200">
  <defs>
    <radialGradient id="nebulaCore" cx="50%" cy="45%" r="60%">
      <stop offset="0%" stop-color="#fdf1da"/>
      <stop offset="35%" stop-color="#eeae6c"/>
      <stop offset="70%" stop-color="#7a2233"/>
      <stop offset="100%" stop-color="#2a1018"/>
    </radialGradient>
    <linearGradient id="swirl1" x1="0%" y1="0%" x2="100%" y2="100%">
      <stop offset="0%" stop-color="#f3cf9a"/>
      <stop offset="50%" stop-color="#cf9a46"/>
      <stop offset="100%" stop-color="#8a2a3d"/>
    </linearGradient>
    <linearGradient id="swirl2" x1="100%" y1="0%" x2="0%" y2="100%">
      <stop offset="0%" stop-color="#ffd9a0"/>
      <stop offset="100%" stop-color="#8a2a3d" stop-opacity="0.4"/>
    </linearGradient>
    <filter id="soft" x="-50%" y="-50%" width="200%" height="200%">
      <feGaussianBlur stdDeviation="3.2" result="b"/>
      <feMerge>
        <feMergeNode in="b"/>
        <feMergeNode in="SourceGraphic"/>
      </feMerge>
    </filter>
  </defs>

  <circle cx="100" cy="100" r="98" fill="#140a12"/>

  <g opacity="0.9">
    <circle cx="34" cy="46" r="1.4" fill="#fff"/>
    <circle cx="162" cy="38" r="1" fill="#fff"/>
    <circle cx="172" cy="120" r="1.6" fill="#fff"/>
    <circle cx="24" cy="140" r="1.1" fill="#fff"/>
    <circle cx="52" cy="168" r="1.3" fill="#fff"/>
    <circle cx="140" cy="170" r="1" fill="#fff"/>
    <circle cx="150" cy="60" r="0.9" fill="#fff"/>
  </g>

  <g filter="url(#soft)">
    <path d="M100 30 C 145 30, 172 62, 165 100 C 158 140, 118 162, 82 152 C 55 145, 40 118, 48 92 C 54 72, 76 62, 92 74 C 104 83, 100 100, 88 104 C 80 107, 74 100, 78 94"
          fill="none" stroke="url(#swirl1)" stroke-width="7" stroke-linecap="round"/>
    <path d="M60 50 C 90 34, 138 44, 152 78 C 163 104, 152 132, 128 145"
          fill="none" stroke="url(#swirl2)" stroke-width="4" stroke-linecap="round" opacity="0.85"/>
  </g>

  <circle cx="100" cy="100" r="30" fill="url(#nebulaCore)"/>

  <path d="M100 78 L104 96 L122 100 L104 104 L100 122 L96 104 L78 100 L96 96 Z" fill="#fff8ec" opacity="0.95"/>

  <g fill="#f3e9ff">
    <circle cx="140" cy="70" r="2.2"/>
    <circle cx="150" cy="130" r="1.6"/>
    <circle cx="58" cy="130" r="1.8"/>
    <circle cx="66" cy="64" r="1.4"/>
  </g>

  <circle cx="100" cy="100" r="98" fill="none" stroke="#cf9a46" stroke-opacity="0.35" stroke-width="1.5"/>
</svg>
